<svg width="97" height="32" viewBox="0 0 97 32" fill="none" xmlns="http://www.w3.org/2000/svg">
<path d="M41.502 20.213H46.9799C46.9799 21.9958 45.5346 23.441 43.7519 23.441H37.3203V10.4556C37.3203 8.14614 39.1925 6.27393 41.502 6.27393V20.213Z" fill="#323842"/>
<path d="M54.62 23.6257C53.2832 23.6257 52.0767 23.3405 51.0007 22.7698C49.9411 22.1992 49.1015 21.3841 48.4819 20.3244C47.8787 19.2647 47.5771 18.0256 47.5771 16.6073C47.5771 15.2053 47.8869 13.9744 48.5064 12.9147C49.1259 11.8387 49.9736 11.0154 51.0496 10.4448C52.1257 9.87413 53.3321 9.58887 54.669 9.58887C56.0058 9.58887 57.2122 9.87413 58.2882 10.4448C59.3642 11.0154 60.2119 11.8387 60.8314 12.9147C61.451 13.9744 61.7608 15.2053 61.7608 16.6073C61.7608 18.0093 61.4428 19.2484 60.807 20.3244C60.1875 21.3841 59.3316 22.1992 58.2393 22.7698C57.1633 23.3405 55.9569 23.6257 54.62 23.6257ZM54.62 20.0065C55.4188 20.0065 56.0955 19.713 56.6497 19.1261C57.2204 18.5392 57.5056 17.6996 57.5056 16.6073C57.5056 15.515 57.2285 14.6754 56.6742 14.0885C56.1362 13.5016 55.4678 13.2081 54.669 13.2081C53.8538 13.2081 53.1772 13.5016 52.6392 14.0885C52.1012 14.6591 51.8322 15.4987 51.8322 16.6073C51.8322 17.6996 52.093 18.5392 52.6148 19.1261C53.1527 19.713 53.8212 20.0065 54.62 20.0065Z" fill="#323842"/>
<path d="M69.1467 9.56763C70.109 9.56763 70.9484 9.76324 71.6658 10.1545C72.3992 10.5458 72.9616 11.0593 73.3528 11.6952C73.3528 10.6282 74.2177 9.76324 75.2847 9.76324H77.5347V23.3845C77.5347 24.6398 77.2817 25.7728 76.7764 26.7836C76.2873 27.8107 75.5296 28.6259 74.5023 29.2291C73.4917 29.8323 72.2281 30.1339 70.7122 30.1339C68.6904 30.1339 67.0517 29.653 65.7969 28.691C64.5414 27.7455 63.824 26.4575 63.6448 24.8273H67.7771C67.908 25.3489 68.2173 25.7565 68.7065 26.05C69.1957 26.3597 69.799 26.5146 70.5163 26.5146C71.3806 26.5146 72.0651 26.2619 72.5704 25.7565C73.0924 25.2675 73.3528 24.4767 73.3528 23.3845V21.4525C72.9455 22.0883 72.3831 22.61 71.6658 23.0176C70.9484 23.4089 70.109 23.6045 69.1467 23.6045C68.022 23.6045 67.0028 23.3192 66.0901 22.7486C65.1769 22.1617 64.4515 21.3384 63.9133 20.2787C63.3919 19.2027 63.1309 17.9637 63.1309 16.5616C63.1309 15.1595 63.3919 13.9286 63.9133 12.869C64.4515 11.8093 65.1769 10.9941 66.0901 10.4235C67.0028 9.85289 68.022 9.56763 69.1467 9.56763ZM73.3528 16.5861C73.3528 15.5427 73.0595 14.7194 72.4724 14.1161C71.902 13.5129 71.2008 13.2114 70.3694 13.2114C69.5379 13.2114 68.8287 13.5129 68.2421 14.1161C67.6711 14.7031 67.3859 15.5182 67.3859 16.5616C67.3859 17.605 67.6711 18.4365 68.2421 19.056C68.8287 19.6592 69.5379 19.9608 70.3694 19.9608C71.2008 19.9608 71.902 19.6592 72.4724 19.056C73.0595 18.4528 73.3528 17.6295 73.3528 16.5861Z" fill="#323842"/>
<path d="M86.0295 23.6257C84.6928 23.6257 83.4863 23.3405 82.41 22.7698C81.3504 22.1992 80.5109 21.3841 79.8915 20.3244C79.2883 19.2647 78.9863 18.0256 78.9863 16.6073C78.9863 15.2053 79.2963 13.9744 79.9157 12.9147C80.5351 11.8387 81.3832 11.0154 82.4589 10.4448C83.5353 9.87413 84.7418 9.58887 86.0785 9.58887C87.4152 9.58887 88.6217 9.87413 89.6974 10.4448C90.7738 11.0154 91.6213 11.8387 92.2407 12.9147C92.8607 13.9744 93.1701 15.2053 93.1701 16.6073C93.1701 18.0093 92.852 19.2484 92.2165 20.3244C91.5971 21.3841 90.7409 22.1992 89.6485 22.7698C88.5728 23.3405 87.3662 23.6257 86.0295 23.6257ZM86.0295 20.0065C86.8281 20.0065 87.5051 19.713 88.0594 19.1261C88.6298 18.5392 88.915 17.6996 88.915 16.6073C88.915 15.515 88.6379 14.6754 88.0836 14.0885C87.5454 13.5016 86.8771 13.2081 86.0785 13.2081C85.2632 13.2081 84.5868 13.5016 84.0486 14.0885C83.5105 14.6591 83.2414 15.4987 83.2414 16.6073C83.2414 17.6996 83.5024 18.5392 84.0244 19.1261C84.562 19.713 85.2303 20.0065 86.0295 20.0065Z" fill="#323842"/>
<path d="M23.6302 14.8202C27.0543 14.8202 29.8302 12.0443 29.8302 8.62017C29.8302 5.196 27.0543 2.42017 23.6302 2.42017C20.206 2.42017 17.4302 5.196 17.4302 8.62017C17.4302 12.0443 20.206 14.8202 23.6302 14.8202Z" fill="#6BC1E2"/>
<path d="M23.6302 29.5802C27.0543 29.5802 29.8302 26.8043 29.8302 23.3802C29.8302 19.956 27.0543 17.1802 23.6302 17.1802C20.206 17.1802 17.4302 19.956 17.4302 23.3802C17.4302 26.8043 20.206 29.5802 23.6302 29.5802Z" fill="#FFACDB"/>
<path d="M3.12012 12.9001C3.12012 7.07905 7.83906 2.36011 13.6601 2.36011V19.1001C13.6601 24.9212 8.94117 29.6401 3.12012 29.6401V12.9001Z" fill="#796FC3"/>
</svg>
